<svg width="134" height="24" viewBox="0 0 134 24" fill="none" xmlns="http://www.w3.org/2000/svg">
<g opacity="0.7">
<g clip-path="url(#clip0_1_607)">
<g clip-path="url(#clip1_1_607)">
<path d="M43.216 8.22384C43.52 8.22384 43.768 8.30384 43.968 8.42384C44.072 8.48784 44.16 8.56784 44.248 8.66384C44.584 9.06384 44.712 9.68784 44.72 10.4238V10.6558H41.4C41.4 10.5758 41.4 10.4958 41.416 10.4158C41.472 9.61584 41.68 9.02384 42.032 8.65584L42.136 8.56784C42.4401 8.32182 42.8256 8.19904 43.216 8.22384ZM34.92 8.41584V14.7198H31.56L31.608 14.5998C31.824 14.0718 31.984 13.4238 32.096 12.7198C32.328 11.3598 32.4 9.83984 32.4 8.71984V8.41584H34.92Z" fill="white" fill-opacity="0.6"/>
<path fill-rule="evenodd" clip-rule="evenodd" d="M18.68 18.3361C18.384 18.4961 18.04 18.6001 17.68 18.6001H15.264C14.7814 18.601 14.3148 18.4274 13.9502 18.1113C13.5856 17.7952 13.3476 17.3579 13.28 16.8801L12.72 17.7121C12.5378 17.9844 12.2915 18.2079 12.0028 18.3627C11.714 18.5175 11.3916 18.5991 11.064 18.6001H8.43999C8.077 18.5999 7.72089 18.501 7.40985 18.3138C7.09882 18.1267 6.84458 17.8584 6.6744 17.5378C6.50421 17.2171 6.4245 16.8562 6.44381 16.4937C6.46312 16.1312 6.58071 15.7808 6.78399 15.4801L8.92799 12.2881C8.2255 11.643 7.66873 10.8555 7.29486 9.97809C6.921 9.10068 6.73865 8.1536 6.75999 7.2001C6.75999 5.3761 7.40799 3.6641 8.81599 2.4401C10.192 1.2401 12.064 0.704102 14.16 0.704102H17.68C18.2104 0.704102 18.7191 0.914815 19.0942 1.28989C19.4693 1.66496 19.68 2.17367 19.68 2.7041V4.5441H22.056C22.712 4.5441 23.288 4.8481 23.656 5.3281C23.8423 5.0848 24.082 4.88757 24.3567 4.75164C24.6313 4.6157 24.9335 4.5447 25.24 4.5441H27.624C28.152 4.5441 28.632 4.7441 28.984 5.0801C29.3575 4.73245 29.8497 4.5407 30.36 4.5441H37.296C37.6968 4.54259 38.0888 4.66153 38.4211 4.88548C38.7535 5.10944 39.0109 5.42808 39.16 5.8001C40.2835 4.82654 41.7298 4.30733 43.216 4.3441C44.536 4.3441 45.896 4.6641 47 5.5601C47.1738 5.2525 47.426 4.99644 47.731 4.81798C48.0359 4.63952 48.3827 4.54502 48.736 4.5441H51.12C51.824 4.5441 52.44 4.9041 52.8 5.4561L52.864 5.3681C53.0485 5.11164 53.2911 4.90254 53.572 4.75792C53.8529 4.6133 54.1641 4.53729 54.48 4.5361H56.88C57.464 4.5361 58 4.7921 58.384 5.2161C59.4312 4.62002 60.6192 4.3161 61.824 4.3361C63.0452 4.28727 64.2597 4.54005 65.36 5.0721C65.6688 5.2466 65.9256 5.50007 66.1041 5.80654C66.2827 6.113 66.3765 6.46143 66.376 6.8161V8.8401C66.3756 9.1965 66.2799 9.54631 66.0989 9.85332C65.9179 10.1603 65.6581 10.4134 65.3465 10.5864C65.0349 10.7593 64.6827 10.8458 64.3264 10.837C63.9701 10.8282 63.6227 10.7243 63.32 10.5361C62.9378 10.3328 62.5128 10.2232 62.08 10.2161C62.0178 10.2151 61.9558 10.2232 61.896 10.2401C61.84 10.3121 61.656 10.6401 61.656 11.5201C61.656 12.4001 61.816 12.7841 61.896 12.9041L62.056 12.9201C62.664 12.9201 62.984 12.7761 63.232 12.6001C63.5318 12.391 63.8832 12.2681 64.2479 12.2447C64.6127 12.2213 64.9769 12.2983 65.301 12.4674C65.625 12.6364 65.8966 12.891 66.0861 13.2036C66.2756 13.5161 66.3759 13.8746 66.376 14.2401V16.1841C66.376 16.8241 66.072 17.4241 65.552 17.8001C64.4796 18.5137 63.2065 18.8642 61.92 18.8001C60.7893 18.824 59.668 18.5915 58.64 18.1201C58.2767 18.4308 57.8141 18.6011 57.336 18.6001H54.64C54 18.6001 53.384 18.2801 53.008 17.7601L52.872 17.5681C52.6989 17.881 52.4451 18.1419 52.1369 18.3234C51.8288 18.5049 51.4776 18.6004 51.12 18.6001H48.736C48.2197 18.5991 47.7237 18.3984 47.352 18.0401C46.368 18.5121 45.136 18.8001 43.704 18.8001C42.5494 18.8227 41.4052 18.579 40.36 18.0881V18.9041C40.36 19.4345 40.1493 19.9432 39.7742 20.3183C39.3991 20.6934 38.8904 20.9041 38.36 20.9041H36.16C35.6296 20.9041 35.1209 20.6934 34.7458 20.3183C34.3707 19.9432 34.16 19.4345 34.16 18.9041V18.6001H32.816V18.9041C32.816 19.4345 32.6053 19.9432 32.2302 20.3183C31.8551 20.6934 31.3464 20.9041 30.816 20.9041H28.616C28.0856 20.9041 27.5769 20.6934 27.2018 20.3183C26.8267 19.9432 26.616 19.4345 26.616 18.9041V18.6001H25.24C24.9322 18.6007 24.6284 18.5303 24.3523 18.3943C24.0762 18.2584 23.8351 18.0605 23.648 17.8161C23.4609 18.0605 23.2198 18.2584 22.9437 18.3943C22.6676 18.5303 22.3638 18.6007 22.056 18.6001H19.68C19.3293 18.6013 18.9844 18.5103 18.68 18.3361ZM13.36 10.5201L14.584 11.3441L11.064 16.6001H8.43999L11.6 11.8961C9.78399 10.6001 8.75999 9.3361 8.75999 7.2001C8.71795 6.2786 8.98698 5.36972 9.52384 4.61957C10.0607 3.86942 10.8342 3.32158 11.72 3.0641C12.408 2.8241 13.224 2.6961 14.16 2.6961H17.68V16.6001H15.264V4.5761H14.16C13.84 4.5761 13.536 4.6081 13.264 4.6561C12.9812 4.71056 12.7069 4.80201 12.448 4.9281C12.047 5.11582 11.7107 5.41814 11.4815 5.79689C11.2522 6.17564 11.1404 6.61382 11.16 7.0561C11.16 8.7041 11.848 9.4881 13.264 10.4561L13.36 10.5201ZM19.68 16.6001H22.056V12.4001H25.24V16.6001H27.624V6.5441H25.24V10.5201H22.064V6.5441H19.68V16.6001ZM51.12 16.6001H48.736V6.5441H51.12V11.1841L54.48 6.5441H56.88L53.52 11.1841L57.336 16.6001H54.64L51.12 11.6561V16.6001ZM47.12 10.4161L47.136 11.1601V12.4161H41.4L41.416 12.6561C41.496 13.4561 41.72 14.0481 42.16 14.4161C42.264 14.5121 42.384 14.5841 42.512 14.6561C42.9444 14.8573 43.4199 14.948 43.896 14.9201C45.004 14.8801 46.0834 14.558 47.032 13.9841V15.9201C46.0274 16.5273 44.8694 16.8328 43.696 16.8001C42.976 16.8001 42.336 16.7041 41.776 16.5121C41.1952 16.3209 40.6678 15.9951 40.2368 15.5614C39.8058 15.1276 39.4834 14.5981 39.296 14.0161C39.1667 13.6313 39.0756 13.2347 39.024 12.8321C38.8604 11.6051 38.953 10.3575 39.296 9.1681C39.5783 8.22674 40.1922 7.41958 41.024 6.8961C41.68 6.51734 42.4266 6.32379 43.184 6.3361H43.224C43.776 6.3361 44.288 6.4161 44.744 6.5681C45.648 6.8721 46.344 7.5121 46.744 8.5681C46.936 9.0801 47.064 9.6961 47.112 10.4161H47.12ZM29.36 14.7201C29.456 14.5281 29.544 14.3201 29.616 14.0961C30.232 12.3361 30.36 9.5841 30.36 7.4001V6.5441H37.296V14.7201H38.36V18.9041H36.16V16.6001H30.816V18.9041H28.616V14.7201H29.36ZM60.496 16.6561C60.0757 16.564 59.6714 16.4104 59.296 16.2001C59.0499 16.0632 58.8215 15.8966 58.616 15.7041C57.9082 15.0047 57.4524 14.0903 57.32 13.1041C57.24 12.6401 57.2 12.1281 57.2 11.5841C57.2 10.4641 57.408 9.4641 57.824 8.6401C58.0255 8.24227 58.2872 7.87797 58.6 7.5601C59.1138 7.04517 59.7582 6.68007 60.464 6.5041C60.9914 6.369 61.5363 6.31505 62.08 6.3441C63.128 6.3681 63.92 6.5601 64.384 6.8241V8.8401C63.602 8.40802 62.7168 8.19779 61.824 8.2321C61.552 8.2561 61.304 8.3121 61.08 8.4161C60.16 8.8161 59.664 9.8561 59.664 11.5201C59.664 13.1361 60.08 14.2961 61.072 14.7281C61.3824 14.8621 61.718 14.9276 62.056 14.9201C62.4882 14.913 62.9179 14.8539 63.336 14.7441C63.736 14.6321 64.072 14.4561 64.376 14.2401V16.1841C63.6475 16.6543 62.7842 16.8709 61.92 16.8001C61.4415 16.8048 60.9639 16.7565 60.496 16.6561Z" fill="white" fill-opacity="0.6"/>
<path d="M85.336 11.9038V14.1998L85.24 14.3278C84.9972 14.6122 84.6735 14.816 84.312 14.9118C84.0931 14.9717 83.867 15.0013 83.64 14.9998C83.3007 15.0103 82.9662 14.9183 82.68 14.7358C82.32 14.4798 82.136 14.0478 82.136 13.4958C82.136 13.1838 82.192 12.9278 82.32 12.7118C82.504 12.3918 82.832 12.1838 83.336 12.0558C83.8691 11.9382 84.4142 11.8845 84.96 11.8958H85.336V11.9038ZM92.008 11.5838C92.008 12.3278 92.08 12.9438 92.208 13.4238C92.384 14.0638 92.672 14.4878 93.064 14.7118C93.304 14.8558 93.592 14.9198 93.912 14.9198C94.1655 14.9205 94.4173 14.8772 94.656 14.7918C95.536 14.4558 95.968 13.4318 95.968 11.5598C95.968 9.69579 95.56 8.67979 94.728 8.34379C94.5053 8.26145 94.2694 8.22077 94.032 8.22379C93.616 8.22379 93.272 8.31179 92.992 8.51179C92.616 8.77579 92.352 9.19979 92.192 9.82379C92.0579 10.4006 91.9961 10.9918 92.008 11.5838ZM111.68 14.7198H110.584V11.5038H111.864C112.14 11.5094 112.413 11.572 112.664 11.6878C113.112 11.9198 113.368 12.3758 113.368 13.1198C113.368 13.8398 113.112 14.2718 112.688 14.5118L112.584 14.5598C112.301 14.6784 111.995 14.733 111.688 14.7198H111.68Z" fill="white" fill-opacity="0.6"/>
<path fill-rule="evenodd" clip-rule="evenodd" d="M75.144 17.7198C75.3271 17.9907 75.5738 18.2125 75.8625 18.3659C76.1512 18.5193 76.4731 18.5996 76.8 18.5998H79.624C79.984 18.5998 80.328 18.5038 80.632 18.3278C81.9495 18.8463 83.4066 18.8887 84.752 18.4478C84.992 18.5438 85.248 18.5998 85.52 18.5998H87.632V19.5038C87.632 20.0342 87.8427 20.5429 88.2178 20.918C88.5929 21.2931 89.1016 21.5038 89.632 21.5038H92C92.5304 21.5038 93.0391 21.2931 93.4142 20.918C93.7893 20.5429 94 20.0342 94 19.5038V18.7758C94.9305 18.8758 95.871 18.7348 96.7312 18.3663C97.5914 17.9978 98.3424 17.4143 98.912 16.6718C99.184 16.3278 99.416 15.9518 99.608 15.5518V16.5998C99.608 17.1302 99.8187 17.6389 100.194 18.014C100.569 18.3891 101.078 18.5998 101.608 18.5998H103.984C104.514 18.5998 105.023 18.3891 105.398 18.014C105.773 17.6389 105.984 17.1302 105.984 16.5998H106.2C106.2 17.1302 106.411 17.6389 106.786 18.014C107.161 18.3891 107.67 18.5998 108.2 18.5998H111.816C112.96 18.5998 114.112 18.3758 115.12 17.8238C115.306 18.0646 115.545 18.2596 115.818 18.3941C116.091 18.5286 116.392 18.5989 116.696 18.5998H119.08C119.61 18.5998 120.119 18.3891 120.494 18.014C120.869 17.6389 121.08 17.1302 121.08 16.5998V6.5438C121.08 6.01337 120.869 5.50466 120.494 5.12959C120.119 4.75451 119.61 4.5438 119.08 4.5438H116.696C116.166 4.5438 115.657 4.75451 115.282 5.12959C114.907 5.50466 114.696 6.01337 114.696 6.5438V8.1438C114.02 7.86764 113.304 7.70023 112.576 7.6478V6.5438C112.576 6.01337 112.365 5.50466 111.99 5.12959C111.615 4.75451 111.106 4.5438 110.576 4.5438H108.2C107.952 4.5438 107.712 4.5838 107.496 4.6638C107.27 4.58189 107.032 4.54124 106.792 4.5438H98.808C98.2928 4.54267 97.797 4.74041 97.424 5.0958C96.7115 4.67116 95.9108 4.41635 95.0839 4.35114C94.257 4.28593 93.4263 4.41208 92.656 4.7198C92.3945 4.60217 92.1107 4.54215 91.824 4.5438H89.624C88.904 4.5438 88.264 4.9198 87.912 5.4958C86.768 4.6078 85.312 4.3758 83.952 4.3758C82.272 4.3758 80.88 4.8238 79.904 5.3038L80.928 3.8558C81.1389 3.5565 81.2636 3.20505 81.2885 2.83976C81.3134 2.47447 81.2375 2.10936 81.0692 1.78422C80.9008 1.45908 80.6464 1.18639 80.3338 0.995874C80.0211 0.80536 79.6621 0.704331 79.296 0.703801H76.896C76.24 0.703801 75.632 1.0238 75.256 1.5518L74.4 2.7758V2.6958C74.4 2.16537 74.1893 1.65666 73.8142 1.28159C73.4391 0.906514 72.9304 0.695801 72.4 0.695801H69.984C69.4536 0.695801 68.9449 0.906514 68.5698 1.28159C68.1947 1.65666 67.984 2.16537 67.984 2.6958V16.5998C67.984 17.1302 68.1947 17.6389 68.5698 18.014C68.9449 18.3891 69.4536 18.5998 69.984 18.5998H72.4C72.9277 18.5998 73.434 18.3913 73.8086 18.0197C74.1832 17.6481 74.3958 17.1435 74.4 16.6158L75.144 17.7198ZM76.8 16.5998H79.624L74.664 9.2798L79.304 2.6958H76.904L72.4 9.0958V2.6958H69.984V16.5998H72.4V10.0798L76.8 16.5998ZM79.696 13.5598C79.696 13.4318 79.704 13.2958 79.72 13.1758C79.7549 12.7593 79.8894 12.3573 80.1122 12.0037C80.335 11.6501 80.6394 11.3552 81 11.1438C81.2567 10.9856 81.5304 10.8568 81.816 10.7598C82.616 10.4718 83.656 10.3198 84.96 10.3198H85.336V9.7598C85.336 9.2318 85.216 8.8718 84.96 8.6398C84.848 8.5358 84.72 8.4638 84.568 8.3998C84.2786 8.30739 83.9757 8.26413 83.672 8.2718C82.7532 8.30841 81.8506 8.52589 81.016 8.9118C80.776 9.0398 80.576 9.1598 80.416 9.2798V7.2958C81.4964 6.68404 82.7185 6.36679 83.96 6.3758C84.328 6.3758 84.672 6.3998 84.984 6.4398C86.488 6.6398 87.368 7.3358 87.624 8.7278C87.688 9.0318 87.72 9.3678 87.72 9.7438V14.1438C87.7257 14.9638 87.7658 15.7832 87.84 16.5998H85.52V16.5918C85.425 16.3368 85.3631 16.0706 85.336 15.7998H85.24L85.232 15.8078C84.776 16.3165 84.1444 16.6338 83.464 16.6958C83.0014 16.7534 82.5331 16.748 82.072 16.6798C81.5121 16.5988 80.9916 16.3442 80.584 15.9518C80.2813 15.6346 80.047 15.2587 79.8956 14.8472C79.7442 14.4357 79.679 13.9975 79.704 13.5598H79.696ZM91.832 6.5438H89.632V19.5038H92V15.4238C92.3167 15.9293 92.7786 16.3273 93.3254 16.5657C93.8721 16.8041 94.4781 16.8717 95.064 16.7598C97.08 16.4798 98.424 14.6638 98.424 11.5598C98.424 11.1358 98.4 10.7438 98.344 10.3598C98.2715 9.68711 98.0905 9.0306 97.808 8.4158C97.5721 7.9121 97.2312 7.46474 96.808 7.1038C96.1975 6.59177 95.4205 6.32137 94.624 6.3438C94.3544 6.34336 94.0858 6.3756 93.824 6.4398C93.0392 6.64438 92.3649 7.14652 91.944 7.8398L91.824 6.5358L91.832 6.5438ZM103.992 16.5998H101.616V8.4158H98.816V6.5438H106.8V8.4158H104V16.5998H103.992ZM111.832 16.5998H108.208V6.5438H110.584V9.6158H111.864C112.384 9.6158 112.864 9.6718 113.296 9.7758C113.856 9.9118 114.32 10.1278 114.704 10.4318C115.424 11.0078 115.824 11.8798 115.824 13.0398C115.824 14.2158 115.408 15.1038 114.704 15.7038C114.336 16.0078 113.896 16.2398 113.384 16.3918C112.877 16.5353 112.351 16.6053 111.824 16.5998H111.832ZM119.088 16.5998H116.704V6.5438H119.088V16.5998Z" fill="white" fill-opacity="0.6"/>
<path d="M47.04 15.9198V13.9838C46.0979 14.5787 45.0101 14.9026 43.896 14.9198C42.16 14.9198 41.496 14.1038 41.4 12.4158H47.136V11.1598C47.136 7.6558 45.6 6.3438 43.216 6.3438C40.32 6.3438 38.936 8.5598 38.936 11.5998C38.936 15.1038 40.656 16.7998 43.696 16.7998C45.216 16.7998 46.336 16.3998 47.04 15.9198ZM61.92 16.7998C62.7833 16.8601 63.6434 16.6444 64.376 16.1838V14.2398C63.776 14.6558 63.056 14.9198 62.056 14.9198C60.36 14.9198 59.656 13.5998 59.656 11.5198C59.656 9.3438 60.52 8.2158 62.08 8.2158C63 8.2158 63.896 8.5358 64.376 8.8398V6.8158C63.5729 6.45478 62.6953 6.29024 61.816 6.3358C58.776 6.3358 57.2 8.5198 57.2 11.5838C57.2 14.9438 58.736 16.7998 61.92 16.7998ZM25.24 6.5438V10.5198H22.056V6.5438H19.68V16.5998H22.056V12.3998H25.24V16.5998H27.616V6.5438H25.24ZM38.36 14.7198H37.296V6.5438H30.36V7.3998C30.36 9.8558 30.2 13.0398 29.36 14.7198H28.616V18.9038H30.816V16.5998H36.16V18.9038H38.36V14.7198ZM54.64 16.5998H57.336L53.52 11.1838L56.88 6.5438H54.48L51.12 11.1838V6.5438H48.736V16.5998H51.12V11.6558L54.64 16.5998ZM43.176 8.2158C44.36 8.2158 44.72 9.1998 44.72 10.4558V10.6558H41.4C41.456 9.0558 42.04 8.2158 43.176 8.2158ZM34.92 14.7198H31.56C32.216 13.1998 32.4 10.4638 32.4 8.7198V8.4158H34.92V14.7198ZM76.8 16.5998H79.624L74.664 9.2798L79.304 2.6958H76.904L72.4 9.0958V2.6958H69.984V16.5998H72.4V10.0798L76.8 16.5998ZM87.72 9.7438C87.72 7.3038 86.48 6.3838 83.96 6.3838C82.7194 6.37384 81.4977 6.68822 80.416 7.2958V9.2798C81.3899 8.64955 82.5202 8.30326 83.68 8.2798C84.816 8.2798 85.336 8.6798 85.336 9.7598V10.3198H84.96C81.32 10.3198 79.696 11.5198 79.696 13.5598C79.696 15.5998 80.936 16.7438 82.776 16.7438C84.176 16.7438 84.776 16.2798 85.24 15.7998H85.336C85.36 16.0558 85.44 16.3998 85.52 16.5998H87.84C87.76 15.7838 87.72 14.9598 87.72 14.1438V9.7438ZM85.336 14.1998C85.04 14.6398 84.48 14.9998 83.64 14.9998C82.64 14.9998 82.136 14.3998 82.136 13.4958C82.136 12.3198 82.96 11.8958 85 11.8958H85.336V14.1998ZM91.832 6.5438H89.632V19.5038H92V15.4238C92.2651 15.8479 92.6344 16.1971 93.0728 16.438C93.5111 16.6788 94.0038 16.8034 94.504 16.7998C96.824 16.7998 98.424 14.9438 98.424 11.5598C98.424 8.1998 96.864 6.3438 94.624 6.3438C93.504 6.3438 92.584 6.8558 91.944 7.8398L91.824 6.5358L91.832 6.5438ZM93.912 14.9198C92.648 14.9198 92.008 13.9038 92.008 11.5838C92.008 9.2398 92.688 8.2238 94.032 8.2238C95.328 8.2238 95.968 9.2398 95.968 11.5598C95.968 13.9038 95.288 14.9198 93.912 14.9198ZM106.8 8.4158V6.5438H98.816V8.4158H101.616V16.5998H103.992V8.4158H106.792H106.8ZM108.208 6.5438V16.5998H111.824C114.168 16.5998 115.824 15.3998 115.824 13.0398C115.824 10.7998 114.344 9.6158 111.864 9.6158H110.584V6.5438H108.208ZM116.704 6.5438V16.5998H119.088V6.5438H116.704ZM111.688 14.7198H110.584V11.5038H111.744C112.768 11.5038 113.368 11.9598 113.368 13.1198C113.368 14.2798 112.704 14.7198 111.688 14.7198Z" fill="black"/>
<path d="M17.68 16.5998H15.256V4.5758H14.184C12.2 4.5758 11.16 5.5758 11.16 7.0558C11.16 8.7358 11.88 9.5198 13.36 10.5198L14.584 11.3438L11.064 16.5998H8.44L11.6 11.8958C9.784 10.5998 8.76 9.3358 8.76 7.1998C8.76 4.5198 10.616 2.6958 14.16 2.6958H17.68V16.5998Z" fill="#FF0000"/>
</g>
</g>
</g>
<defs>
<clipPath id="clip0_1_607">
<rect width="130" height="24" fill="white" transform="translate(4)"/>
</clipPath>
<clipPath id="clip1_1_607">
<rect width="120" height="24" fill="white" transform="translate(4)"/>
</clipPath>
</defs>
</svg>
