<svg width="352" height="492" viewBox="0 0 352 492" fill="none" xmlns="http://www.w3.org/2000/svg">
<g clip-path="url(#clip0_1_649)">
<g clip-path="url(#clip1_1_649)">
<g clip-path="url(#clip2_1_649)">
<mask id="mask0_1_649" style="mask-type:luminance" maskUnits="userSpaceOnUse" x="0" y="-1" width="227" height="70">
<path d="M227 -0.00585938H0V68.9562H227V-0.00585938Z" fill="white"/>
</mask>
<g mask="url(#mask0_1_649)">
<path d="M8.75214 42.0549H0.0968018L18.4001 -0.00585938H27.576L45.8793 42.0549H37.224L33.8951 34.3688H12.1053L8.75214 42.0549ZM23.0002 8.88197L15.5069 26.4073H30.4812L23.0002 8.88197Z" fill="white"/>
<path d="M50.8425 42.0549V-0.00585938H80.6338V7.93061H59.0743V42.0549H50.8425Z" fill="white"/>
<path d="M85.5123 42.0549H76.857L95.1601 -0.00585938H104.336L122.639 42.0549H113.984L110.667 34.3688H88.8777L85.5123 42.0549ZM99.7481 8.88197L92.2548 26.4073H107.241L99.7481 8.88197Z" fill="white"/>
<path d="M135.834 42.0549H127.638V-0.00585938H140.954L153.326 32.6163L165.577 -0.00585938H178.893V42.0549H170.758V8.64413L157.853 42.0549H148.665L135.834 8.7568V42.0549Z" fill="white"/>
<path d="M195.042 42.0549H186.847V-0.00585938H195.042V29.6745L218.865 -0.00585938H227V42.0549H218.865V12.3745L195.042 42.0549Z" fill="white"/>
<path d="M1.4402 67.467C0.370809 66.1309 -0.146712 64.4129 -0.000337336 62.6851C-0.148645 60.9533 0.368916 59.2307 1.4402 57.8905C2.72797 56.7857 4.38528 56.2504 6.05235 56.4009C7.48472 56.3133 8.90968 56.6707 10.144 57.4276C10.6412 57.8164 11.0574 58.3048 11.3673 58.8643C11.6773 59.4235 11.8747 60.0418 11.9477 60.6823H10.1561C9.96052 59.8766 9.47008 59.181 8.78816 58.7419C7.94605 58.287 7.00101 58.0753 6.05235 58.1284C5.46373 58.0727 4.87026 58.139 4.30684 58.3238C3.74345 58.5089 3.22152 58.8083 2.77179 59.2051C2.00884 60.1846 1.64418 61.4326 1.75494 62.6851C1.64611 63.9336 2.01072 65.1769 2.77179 66.1524C3.22057 66.5516 3.74207 66.8533 4.30551 67.0403C4.86893 67.2274 5.4629 67.2958 6.05235 67.2417C6.99647 67.2866 7.93553 67.0751 8.77606 66.6283C9.45614 66.1815 9.94546 65.4829 10.144 64.6755H11.9598C11.8868 65.3157 11.6894 65.9341 11.3794 66.4932C11.0695 67.0527 10.6534 67.5414 10.1561 67.9302C8.91833 68.6891 7.48877 69.0468 6.05235 68.9566C4.38528 69.1075 2.72797 68.5721 1.4402 67.467Z" fill="white"/>
<path d="M24.5615 58.2654H19.5741V68.8431H17.8067V58.2654H12.8315V56.5503H24.5615V58.2654Z" fill="white"/>
<path d="M26.8617 57.8902C28.1495 56.7851 29.8068 56.2498 31.474 56.4004C33.1451 56.2435 34.8086 56.7794 36.0981 57.8902C36.6294 58.5528 37.0288 59.3175 37.2739 60.1401C37.5191 60.9628 37.605 61.8274 37.5265 62.6845C37.6024 63.5405 37.5142 64.4034 37.2668 65.2238C37.0197 66.0444 36.6185 66.8064 36.0861 67.4665C34.7997 68.5739 33.1411 69.1095 31.474 68.956C29.8028 69.1101 28.1404 68.5747 26.8496 67.4665C25.7845 66.1283 25.2714 64.4106 25.4212 62.6845C25.2729 60.9527 25.7904 59.2301 26.8617 57.8902ZM28.2054 59.1419C27.4424 60.1214 27.0778 61.3694 27.1885 62.6219C27.0797 63.8704 27.4443 65.1137 28.2054 66.0895C28.6542 66.4884 29.1758 66.7901 29.739 66.9771C30.3025 67.1642 30.8964 67.2329 31.486 67.1785C32.0754 67.234 32.6699 67.1665 33.2333 66.9794C33.7971 66.7921 34.3184 66.4895 34.7666 66.0895C35.5378 65.1189 35.9074 63.8727 35.7956 62.6219C35.9094 61.3671 35.5396 60.1163 34.7666 59.1419C34.3112 58.7534 33.7853 58.4635 33.2196 58.2893C32.6541 58.1152 32.0604 58.0603 31.474 58.1279C30.8872 58.0738 30.2959 58.1411 29.7347 58.3258C29.1735 58.5106 28.6536 58.8094 28.2054 59.2045V59.1419Z" fill="white"/>
<path d="M39.9471 68.8435V56.5757H42.8162L47.1499 66.8404L51.4957 56.5757H54.3527V68.8435H52.5732V58.3158L48.1427 68.8435H46.1089L41.6904 58.3408V68.8435H39.9471Z" fill="white"/>
<path d="M58.033 68.8435H56.1446L61.6405 56.5757H63.6499L69.1456 68.8435H67.2816L66.0711 66.2146H59.1953L58.033 68.8435ZM62.6572 58.4658L59.9579 64.5121H65.3447L62.6572 58.4658Z" fill="white"/>
<path d="M79.9554 58.2654H74.9801V68.8431H73.2129V58.2654H68.2256V56.5503H79.9554V58.2654Z" fill="white"/>
<path d="M82.3159 57.8902C83.6055 56.7794 85.269 56.2435 86.9401 56.4004C88.6113 56.2463 90.2736 56.7819 91.5646 57.8902C92.6358 59.2301 93.1533 60.9527 93.0051 62.6845C93.1381 64.4192 92.6028 66.1378 91.516 67.4665C90.2253 68.5747 88.563 69.1101 86.8919 68.956C85.2368 69.0994 83.5932 68.5644 82.3159 67.4665C81.7835 66.8064 81.3824 66.0444 81.135 65.2238C80.8879 64.4034 80.7996 63.5405 80.8755 62.6845C80.7988 61.8265 80.8864 60.9616 81.1335 60.139C81.3809 59.316 81.7826 58.552 82.3159 57.8902ZM83.6598 59.1419C82.8866 60.1163 82.5168 61.3671 82.6309 62.6219C82.5188 63.8727 82.8886 65.1189 83.6598 66.0895C84.6167 66.797 85.7638 67.1774 86.9401 67.1774C88.1168 67.1774 89.2639 66.797 90.2207 66.0895C90.9819 65.1137 91.3465 63.8704 91.2376 62.6219C91.3485 61.3694 90.9839 60.1214 90.2207 59.1419C89.261 58.4413 88.1151 58.0655 86.9401 58.0655C85.7655 58.0655 84.6196 58.4413 83.6598 59.1419Z" fill="white"/>
<path d="M93.8527 68.8431V66.9903H94.4216C94.5711 66.9957 94.7193 66.9618 94.8529 66.892C94.9863 66.8219 95.1003 66.7179 95.1842 66.5897C95.4736 65.9869 95.65 65.3329 95.7046 64.662C95.8621 63.6482 95.983 62.1583 96.0799 60.1679L96.2253 56.5503H105.098V68.8431H103.38V58.2654H97.9442L97.8594 60.3432C97.8051 62.1014 97.6353 63.8539 97.3511 65.5883C97.2359 66.4935 96.9028 67.3543 96.3825 68.092C96.1549 68.3353 95.8793 68.5253 95.5742 68.6482C95.2693 68.7715 94.942 68.825 94.6153 68.8054L93.8527 68.8431Z" fill="white"/>
<path d="M108.948 57.8903C110.308 56.9208 111.92 56.4019 113.572 56.4019C115.224 56.4019 116.836 56.9208 118.196 57.8903C119.267 59.2304 119.785 60.9531 119.637 62.6849C119.783 64.4127 119.265 66.1307 118.196 67.4668C116.836 68.4363 115.224 68.9552 113.572 68.9552C111.92 68.9552 110.308 68.4363 108.948 67.4668C108.415 66.8068 108.014 66.0448 107.767 65.2241C107.52 64.4035 107.431 63.5406 107.507 62.6849C107.43 61.8269 107.518 60.962 107.765 60.139C108.013 59.3164 108.414 58.5523 108.948 57.8903ZM110.292 59.1422C109.518 60.1166 109.148 61.3674 109.263 62.6222C109.15 63.873 109.52 65.1192 110.292 66.0896C111.248 66.7973 112.395 67.1775 113.572 67.1775C114.748 67.1775 115.896 66.7973 116.852 66.0896C117.614 65.1141 117.978 63.8707 117.869 62.6222C117.98 61.3697 117.616 60.1218 116.852 59.1422C115.893 58.4417 114.747 58.0656 113.572 58.0656C112.397 58.0656 111.251 58.4417 110.292 59.1422Z" fill="white"/>
<path d="M122.022 68.8435V56.5757H130.58V58.2905H123.789V68.8435H122.022Z" fill="white"/>
<path d="M132.493 68.8435V56.5757H134.26V66.1896L142.153 56.5757H143.92V68.8435H142.153V59.1919L134.26 68.8435H132.493Z" fill="white"/>
<path d="M148.327 68.8433H146.123L149.9 64.2117C148.989 64.189 148.122 63.8031 147.479 63.135C146.905 62.354 146.626 61.3842 146.692 60.4061C146.647 59.8751 146.71 59.3398 146.876 58.8355C147.043 58.3309 147.311 57.868 147.661 57.4769C148.553 56.7959 149.655 56.4756 150.76 56.5756H156.933V68.8433H155.166V64.224H152.104L148.327 68.8433ZM148.411 60.4061C148.387 60.7018 148.425 60.9995 148.523 61.2785C148.622 61.5575 148.778 61.8106 148.98 62.021C149.517 62.4086 150.168 62.5902 150.82 62.5342H155.118V58.2654H150.82C150.169 58.2059 149.519 58.3829 148.98 58.7663C148.776 58.9749 148.618 59.228 148.52 59.5073C148.421 59.7866 148.384 60.0852 148.411 60.3811V60.4061Z" fill="white"/>
</g>
</g>
</g>
</g>
<defs>
<clipPath id="clip0_1_649">
<rect width="227" height="68.95" fill="white"/>
</clipPath>
<clipPath id="clip1_1_649">
<rect width="227" height="68.95" fill="white"/>
</clipPath>
<clipPath id="clip2_1_649">
<rect width="227" height="68.962" fill="white" transform="translate(0 -0.00585938)"/>
</clipPath>
</defs>
</svg>
