<svg width="70" height="80" viewBox="0 0 70 80" fill="none" xmlns="http://www.w3.org/2000/svg">
<g clip-path="url(#clip0_1_551)">
<g clip-path="url(#clip1_1_551)">
<path d="M59.6291 59.5276L54.8811 64.2232C51.3815 67.6576 46.8411 72.0736 41.2575 77.4716C37.7687 80.8452 32.2335 80.8448 28.7451 77.4708L14.7806 63.8872C13.0255 62.164 11.5565 60.7108 10.3731 59.5276C-3.22853 45.926 -3.22853 23.8732 10.3731 10.2715C23.9747 -3.33009 46.0275 -3.33009 59.6291 10.2715C73.2307 23.8732 73.2307 45.926 59.6291 59.5276ZM45.0019 35.9984C45.0019 30.475 40.5243 25.9975 35.0011 25.9975C29.4779 25.9975 25.0003 30.475 25.0003 35.9984C25.0003 41.5216 29.4779 45.9992 35.0011 45.9992C40.5243 45.9992 45.0019 41.5216 45.0019 35.9984Z" fill="#003569"/>
</g>
</g>
<defs>
<clipPath id="clip0_1_551">
<rect width="70" height="80" fill="white"/>
</clipPath>
<clipPath id="clip1_1_551">
<rect width="70" height="80" fill="white"/>
</clipPath>
</defs>
</svg>
