<svg width="95" height="28" viewBox="0 0 95 28" fill="none" xmlns="http://www.w3.org/2000/svg">
<g clip-path="url(#clip0_1_783)">
<g clip-path="url(#clip1_1_783)">
<g clip-path="url(#clip2_1_783)">
<mask id="mask0_1_783" style="mask-type:luminance" maskUnits="userSpaceOnUse" x="0" y="0" width="95" height="28">
<path d="M95 0H0V28H95V0Z" fill="white"/>
</mask>
<g mask="url(#mask0_1_783)">
<path d="M3.59136 17.0723H0L7.59316 0.0722656H11.4068L19 17.0723H15.3915L14.0149 13.9633H4.96805L3.59136 17.0723ZM9.5 3.66345L6.38749 10.7597H12.6125L9.5 3.66345Z" fill="white"/>
<path d="M21 17.0723V0.0722656H34V3.27591H24.5766V17.055L21 17.0723Z" fill="white"/>
<path d="M35.5914 17.0723H32L39.5932 0.0722656H43.4068L51 17.0723H47.4086L46.032 13.9633H36.968L35.5914 17.0723ZM41.5 3.66345L38.3875 10.7597H44.6125L41.5 3.66345Z" fill="white"/>
<path d="M56.5356 17.0723H53V0.0722656H58.7099L64.0133 13.2572L69.2989 0.0722656H75V17.0723H71.5175V3.56872L65.9843 17.0723H62.0422L56.5356 3.59456V17.0723Z" fill="white"/>
<path d="M81.4765 17.0723H78V0.0722656H81.4765V12.0687L91.5235 0.0722656H95V17.0723H91.5235V5.07581L81.4765 17.0723Z" fill="white"/>
<path d="M3.02351 27.9875C2.61275 28.024 2.19855 27.9802 1.8059 27.8589C1.41325 27.7375 1.05031 27.541 0.738968 27.2813C0.197512 26.642 -0.062574 25.8251 0.0140662 25.0046C-0.0655094 24.1805 0.194746 23.3593 0.738968 22.7173C1.05165 22.4596 1.41477 22.2644 1.80706 22.1432C2.19935 22.0219 2.61291 21.977 3.02351 22.011C3.77094 21.9583 4.51479 22.1516 5.13231 22.5592C5.64783 23.003 5.95971 23.6243 6 24.2878H4.69298C4.63736 23.9574 4.4528 23.6597 4.17676 23.4551C3.84292 23.2729 3.46209 23.1851 3.07842 23.2021C2.83267 23.184 2.58574 23.2171 2.35449 23.2989C2.12324 23.3808 1.91311 23.5095 1.73845 23.6765C1.43892 24.077 1.29513 24.5655 1.33207 25.0573C1.30511 25.5283 1.44869 25.9938 1.73845 26.3748C1.914 26.5282 2.12083 26.6448 2.34582 26.7174C2.57081 26.79 2.80907 26.8169 3.04547 26.7964C3.43085 26.8164 3.81357 26.7246 4.14381 26.5329C4.42589 26.3365 4.61545 26.0409 4.67101 25.7108H6C5.96256 26.3727 5.65474 26.9938 5.1433 27.4394C4.52276 27.8493 3.77462 28.0427 3.02351 27.9875Z" fill="white"/>
<path d="M12 23.2153H9.67778V28H8.34444V23.2153H6V22H12V23.2153Z" fill="white"/>
<path d="M12.7634 22.717C13.4012 22.1962 14.2176 21.943 15.0397 22.0108C15.8618 21.943 16.6781 22.1962 17.316 22.717C17.8292 23.3637 18.0686 24.1843 17.983 25.0041C18.0539 25.826 17.7993 26.643 17.2736 27.2807C16.6358 27.8014 15.8194 28.0546 14.9973 27.9868C14.5899 28.0244 14.179 27.9814 13.7883 27.8602C13.3976 27.739 13.0349 27.542 12.721 27.2807C12.1953 26.643 11.9407 25.826 12.0117 25.0041C11.9496 24.1729 12.2198 23.3509 12.7634 22.717ZM13.748 23.6761C13.4421 24.0685 13.2982 24.5623 13.3457 25.0568C13.2999 25.5478 13.4438 26.0378 13.748 26.427C13.925 26.5814 14.1317 26.6985 14.3556 26.7709C14.5795 26.8434 14.8158 26.8698 15.0503 26.8485C15.2864 26.8707 15.5245 26.8447 15.7502 26.7722C15.976 26.6997 16.1845 26.5823 16.3631 26.427C16.6626 26.0354 16.8059 25.5473 16.7654 25.0568C16.8046 24.5615 16.6574 24.0694 16.3525 23.6761C16.1739 23.5208 15.9654 23.4033 15.7397 23.3308C15.514 23.2583 15.2758 23.2324 15.0397 23.2545C14.807 23.2347 14.5726 23.2618 14.3507 23.3342C14.1287 23.4067 13.9237 23.5229 13.748 23.6761Z" fill="white"/>
<path d="M19 28V22H21.3589L23.5 26.6204L25.6411 22H28V28H26.5605V23.1934L24.2742 28H22.7258L20.4395 23.1934V28H19Z" fill="white"/>
<path d="M31.3567 27.9866C30.7296 28.0335 30.1037 27.8823 29.5801 27.5576C29.3786 27.3917 29.2218 27.184 29.1222 26.9514C29.0226 26.7188 28.983 26.4677 29.0066 26.2183C28.9828 25.9633 29.0267 25.7068 29.1346 25.4714C29.2424 25.236 29.4109 25.029 29.6251 24.8685C30.2456 24.5601 30.9476 24.4222 31.6491 24.4709H33.6281C33.6474 24.2795 33.6212 24.0865 33.5512 23.9056C33.4812 23.7248 33.3693 23.5605 33.2233 23.4245C32.8716 23.1887 32.441 23.0774 32.0089 23.1106C31.6467 23.0938 31.286 23.166 30.9632 23.3199C30.8376 23.3922 30.7296 23.4882 30.6463 23.6018C30.5631 23.7153 30.5063 23.8438 30.4797 23.9791H29.1416C29.164 23.688 29.2517 23.4045 29.3988 23.1468C29.546 22.8891 29.7495 22.663 29.9962 22.4828C30.6099 22.1242 31.3314 21.9591 32.0539 22.0119C32.8552 21.9461 33.6547 22.1545 34.3028 22.5979C34.5526 22.8474 34.7429 23.1432 34.8612 23.4661C34.9794 23.7889 35.0228 24.1313 34.9887 24.4709V27.8925H33.6394V27.2333C33.3424 27.508 32.9836 27.718 32.5889 27.8483C32.1942 27.9786 31.7734 28.0258 31.3567 27.9866ZM30.3335 26.1764C30.3335 26.6473 30.7833 26.888 31.6603 26.888C32.1417 26.9195 32.6215 26.8097 33.0322 26.574C33.1965 26.4581 33.3332 26.3118 33.4338 26.1444C33.5344 25.9769 33.5968 25.7919 33.6169 25.6009V25.4021H32.0089C30.8957 25.4021 30.3335 25.6637 30.3335 26.1764Z" fill="white"/>
<path d="M42 23.2153H39.671V28H38.3623V23.2153H36V22H42V23.2153Z" fill="white"/>
<path d="M43.7139 22.7172C44.3532 22.1963 45.1713 21.943 45.9952 22.0108C46.8191 21.943 47.6373 22.1963 48.2766 22.7172C48.8061 23.3579 49.0614 24.1795 48.9875 25.0053C49.0586 25.8275 48.8034 26.6448 48.2766 27.2828C47.6373 27.8037 46.8191 28.057 45.9952 27.9892C45.1713 28.057 44.3532 27.8037 43.7139 27.2828C43.1908 26.6432 42.9395 25.8261 43.0136 25.0053C42.9367 24.1809 43.1881 23.3595 43.7139 22.7172ZM44.6901 23.624C44.3883 24.019 44.2446 24.5111 44.2869 25.0053C44.2463 25.496 44.3899 25.9843 44.6901 26.376C45.0716 26.6496 45.5301 26.7969 46.0005 26.7969C46.471 26.7969 46.9295 26.6496 47.311 26.376C47.6112 25.9843 47.7548 25.496 47.7142 25.0053C47.7433 24.5288 47.6004 24.0577 47.311 23.6767C46.9295 23.4031 46.471 23.2558 46.0005 23.2558C45.5301 23.2558 45.0716 23.4031 44.6901 23.6767V23.624Z" fill="white"/>
<path d="M49 27.9978V26.6759H49.348C49.4252 26.6794 49.502 26.6633 49.5719 26.629C49.6417 26.5947 49.7024 26.5433 49.7487 26.4792C49.8812 26.2099 49.9635 25.9171 49.9912 25.6162C50.0837 24.9574 50.1365 24.2933 50.1494 23.6278L50.2337 22H55V27.9978H53.7346V23.2236H51.4253V23.7589C51.4122 24.638 51.3097 25.5132 51.1195 26.37C51.033 26.8475 50.813 27.2882 50.4868 27.6373C50.1914 27.8901 49.815 28.0188 49.4323 27.9978H49Z" fill="white"/>
<path d="M56.8423 22.717C57.5835 22.1989 58.5311 21.9458 59.4863 22.0108C60.4456 21.943 61.3982 22.1963 62.1425 22.717C62.7635 23.3558 63.0653 24.1773 62.9826 25.0042C63.0757 25.8219 62.7922 26.6384 62.1919 27.2808C61.4476 27.8015 60.495 28.0548 59.5357 27.987C59.0621 28.0243 58.5846 27.9811 58.1308 27.8599C57.677 27.7387 57.2558 27.5419 56.8918 27.2808C56.2606 26.6495 55.9455 25.8318 56.0146 25.0042C55.9285 24.1787 56.2258 23.3574 56.8423 22.717ZM57.9666 23.6234C57.6152 24.0182 57.4479 24.5102 57.4971 25.0042C57.4499 25.4947 57.6171 25.9828 57.9666 26.3744C58.4108 26.6479 58.9446 26.7951 59.4924 26.7951C60.0402 26.7951 60.5741 26.6479 61.0182 26.3744C61.3732 25.9852 61.5411 25.4952 61.4877 25.0042C61.5273 24.5274 61.3602 24.0548 61.0182 23.6761C60.5741 23.4026 60.0402 23.2554 59.4924 23.2554C58.9446 23.2554 58.4108 23.4026 57.9666 23.6761V23.6234Z" fill="white"/>
<path d="M64 28V22H69V23.2153H65.5037V28H64Z" fill="white"/>
<path d="M70.9634 28H70V22H71.1464V25.8869L74.0366 22H75V28H73.8439V24.0912L70.9634 28Z" fill="white"/>
<path d="M76 28L77.5525 25.9529C77.1196 25.8806 76.7317 25.6565 76.4669 25.3255C76.2099 24.9374 76.0875 24.4835 76.1167 24.0268C76.0951 23.7447 76.1393 23.4615 76.2462 23.1972C76.3531 22.9329 76.5201 22.6939 76.7354 22.4969C77.3076 22.1215 78.0026 21.9499 78.6965 22.0127H82V28H80.6109V26.0739H79.1401L77.6693 28H76ZM77.821 23.3884C77.7188 23.4627 77.6384 23.5603 77.5873 23.672C77.5363 23.7837 77.5163 23.9058 77.5292 24.0268C77.5145 24.1448 77.5339 24.2643 77.5853 24.3728C77.6366 24.4812 77.7181 24.5747 77.821 24.6431C78.1237 24.7884 78.4627 24.8531 78.8015 24.8302H80.6109V23.1903H78.8015C78.4613 23.1661 78.1209 23.2349 77.821 23.3884Z" fill="white"/>
</g>
</g>
</g>
</g>
<defs>
<clipPath id="clip0_1_783">
<rect width="95" height="28" fill="white"/>
</clipPath>
<clipPath id="clip1_1_783">
<rect width="95" height="28" fill="white"/>
</clipPath>
<clipPath id="clip2_1_783">
<rect width="95" height="28" fill="white"/>
</clipPath>
</defs>
</svg>
