<svg width="97" height="32" viewBox="0 0 97 32" fill="none" xmlns="http://www.w3.org/2000/svg">
<g clip-path="url(#clip0_1_852)">
<rect x="2" y="2" width="28" height="28" rx="14" fill="white"/>
<path d="M21.878 10.1212C20.4908 8.72015 18.6486 7.86092 16.6836 7.69852C14.7187 7.53612 12.7604 8.08122 11.162 9.23552C9.56354 10.3898 8.43021 12.0773 7.96641 13.9936C7.5026 15.9099 7.73886 17.9289 8.63255 19.6864L7.75528 23.9455C7.74618 23.9878 7.74592 24.0317 7.75452 24.0742C7.76313 24.1167 7.78041 24.1569 7.80528 24.1924C7.84172 24.2463 7.89373 24.2878 7.95438 24.3114C8.01502 24.3349 8.08141 24.3394 8.14467 24.3242L12.3189 23.3349C14.0714 24.2059 16.0762 24.427 17.9764 23.9587C19.8766 23.4904 21.549 22.3632 22.6961 20.7775C23.8432 19.1919 24.3906 17.2507 24.2407 15.2994C24.0909 13.3481 23.2537 11.5132 21.878 10.1212ZM20.5765 20.5091C19.6167 21.4662 18.3807 22.098 17.0428 22.3155C15.7049 22.5329 14.3324 22.3251 13.1189 21.7212L12.5371 21.4333L9.97801 22.0394L9.98558 22.0076L10.5159 19.4318L10.231 18.8697C9.61098 17.6519 9.39224 16.2692 9.60617 14.9195C9.82009 13.5698 10.4557 12.3224 11.422 11.3561C12.636 10.1423 14.2825 9.46051 15.9992 9.46051C17.7159 9.46051 19.3624 10.1423 20.5765 11.3561C20.5868 11.3679 20.598 11.3791 20.6098 11.3894C21.8089 12.6062 22.4782 14.2478 22.472 15.9561C22.4658 17.6644 21.7844 19.301 20.5765 20.5091Z" fill="#003569"/>
<path d="M20.3506 18.6198C20.037 19.1137 19.5415 19.7183 18.9188 19.8683C17.8279 20.1319 16.1536 19.8774 14.0703 17.935L14.0445 17.9122C12.2127 16.2137 11.737 14.8001 11.8521 13.6789C11.9158 13.0425 12.4461 12.4668 12.893 12.091C12.9637 12.0307 13.0475 11.9878 13.1377 11.9656C13.2279 11.9435 13.3221 11.9428 13.4127 11.9635C13.5032 11.9843 13.5876 12.026 13.6592 12.0852C13.7308 12.1444 13.7875 12.2196 13.8248 12.3047L14.4991 13.8198C14.5429 13.918 14.5591 14.0264 14.5461 14.1331C14.533 14.2399 14.4911 14.3411 14.4248 14.4259L14.0839 14.8683C14.0108 14.9596 13.9666 15.0708 13.9572 15.1874C13.9477 15.3041 13.9734 15.4209 14.0309 15.5228C14.2218 15.8577 14.6794 16.3501 15.187 16.8062C15.7567 17.3213 16.3885 17.7925 16.7885 17.9531C16.8955 17.9969 17.0132 18.0075 17.1263 17.9838C17.2395 17.96 17.3429 17.9029 17.4233 17.8198L17.8188 17.4213C17.8951 17.3461 17.99 17.2924 18.0938 17.2658C18.1976 17.2392 18.3066 17.2406 18.4097 17.2698L20.0112 17.7244C20.0996 17.7515 20.1805 17.7984 20.2479 17.8616C20.3154 17.9248 20.3674 18.0026 20.4002 18.089C20.4329 18.1754 20.4455 18.2681 20.4369 18.3601C20.4283 18.4521 20.3988 18.541 20.3506 18.6198Z" fill="#003569"/>
</g>
<g clip-path="url(#clip1_1_852)">
<rect x="42" y="2" width="28" height="28" rx="14" fill="white"/>
<path fill-rule="evenodd" clip-rule="evenodd" d="M53.5532 22.1112C53.1212 22.1112 53.1946 21.9481 53.0456 21.5368L51.7754 17.3563L61.5532 11.5557" fill="white"/>
<path fill-rule="evenodd" clip-rule="evenodd" d="M53.5566 22.1111C53.89 22.1111 54.0373 21.9587 54.2233 21.7778L56.0011 20.0491L53.7835 18.7119" fill="white"/>
<path fill-rule="evenodd" clip-rule="evenodd" d="M53.7797 18.7123L59.1531 22.6822C59.7662 23.0205 60.2088 22.8453 60.3615 22.1129L62.5487 11.8059C62.7727 10.9081 62.2065 10.5009 61.6199 10.7672L48.7766 15.7196C47.8999 16.0712 47.905 16.5603 48.6168 16.7782L51.9127 17.8069L59.543 12.993C59.9032 12.7746 60.2338 12.892 59.9625 13.1329" fill="#003569"/>
</g>
<defs>
<clipPath id="clip0_1_852">
<rect x="2" y="2" width="28" height="28" rx="14" fill="white"/>
</clipPath>
<clipPath id="clip1_1_852">
<rect x="42" y="2" width="28" height="28" rx="14" fill="white"/>
</clipPath>
</defs>
</svg>
