<svg width="335" height="41" viewBox="0 0 335 41" fill="none" xmlns="http://www.w3.org/2000/svg">
<g clip-path="url(#clip0_123_76)">
<path d="M0 0H28.2632V6.9398H17.6015V40.1268H10.6617V6.9398H0V0Z" fill="white"/>
<path d="M39.4675 2.71418C42.5303 0.930769 45.9033 0.0390625 49.5088 0.0390625C53.1144 0.0390625 56.4874 0.930769 59.589 2.71418C62.6518 4.49759 65.0943 6.94009 66.9165 10.0417C68.6999 13.1045 69.5916 16.4775 69.5916 20.1218C69.5916 23.7662 68.6999 27.1004 66.9165 30.202C65.1331 33.2648 62.6906 35.7073 59.589 37.5295C56.5262 39.3129 53.1532 40.2046 49.5088 40.2046C45.8645 40.2046 42.5303 39.3129 39.4675 37.5295C36.4046 35.7461 33.9621 33.3036 32.14 30.202C30.3566 27.1392 29.4648 23.7662 29.4648 20.1218C29.4648 16.4775 30.3566 13.1433 32.14 10.0417C33.9234 6.97886 36.3659 4.53636 39.4675 2.71418ZM40.2429 29.3878C42.8017 31.9466 45.9033 33.226 49.5476 33.226C53.192 33.226 56.2548 31.9466 58.8524 29.3878C61.4112 26.829 62.6906 23.7274 62.6906 20.0831C62.6906 16.4387 61.4112 13.3759 58.8524 10.7783C56.2936 8.2195 53.192 6.94009 49.5476 6.94009C45.9033 6.94009 42.8017 8.2195 40.2429 10.7783C37.6841 13.3371 36.4046 16.4387 36.4046 20.0831C36.4046 23.7274 37.6841 26.829 40.2429 29.3878Z" fill="white"/>
<path d="M90.6825 0C92.8148 0 94.7921 0.542778 96.6142 1.58956C98.4364 2.63635 99.8709 4.07083 100.879 5.85425C101.926 7.63766 102.43 9.61492 102.43 11.7473C102.43 15.0039 101.267 17.7566 98.9792 20.044C96.6918 22.3314 93.9003 23.4945 90.6825 23.4945H81.1063V40.1268H74.1665V16.5547H90.6825C92.0006 16.5547 93.1637 16.0895 94.0942 15.159C95.0247 14.2285 95.4899 13.1042 95.4899 11.7473C95.4899 10.3903 95.0247 9.26599 94.0942 8.33552C93.1637 7.40504 92.0394 6.9398 90.6825 6.9398H74.1665V0H90.6825Z" fill="white"/>
<path d="M116.697 0C120.341 0 123.676 0.891706 126.777 2.67512C129.84 4.45853 132.283 6.90103 134.105 10.0026C135.888 13.0654 136.78 16.4384 136.78 20.0828C136.78 23.7271 136.431 24.3862 135.772 26.4023C135.113 28.4571 134.144 30.2792 132.903 31.9464C131.662 33.5747 130.228 35.0479 128.561 36.2886C126.932 37.5292 125.071 38.4985 123.017 39.1575C120.962 39.8166 118.868 40.1656 116.697 40.1656H108.207V33.2258H116.697C118.481 33.2258 120.186 32.8768 121.815 32.179C123.404 31.4811 124.8 30.5506 126.002 29.3875C127.204 28.2244 128.134 26.8287 128.793 25.2004C129.491 23.5721 129.84 21.8662 129.84 20.1215C129.84 16.4772 128.561 13.4144 126.002 10.8168C123.443 8.25798 120.341 6.97857 116.697 6.97857H108.207V0.0387698H116.697V0Z" fill="white"/>
<path d="M170.82 6.9398H142.557V0H170.82V6.9398ZM166.051 23.5721H142.557V16.5935H166.051V23.5721ZM170.82 40.1656H142.557V33.2258H170.82V40.1656Z" fill="white"/>
<path d="M200.324 0H207.264V40.1268H200.324L176.597 0H184.661L200.324 26.441V0Z" fill="white"/>
<path d="M213.001 0H241.265V6.9398H230.603V40.1268H223.663V6.9398H213.001V0Z" fill="white"/>
<path d="M253.981 40.1658H247.042V0.0390625H253.981V40.1658Z" fill="white"/>
<path d="M289.145 29.3875L294.03 34.3113C292.208 36.1335 290.037 37.568 287.595 38.6148C285.152 39.6615 282.554 40.1656 279.841 40.1656C277.127 40.1656 274.529 39.6228 272.048 38.576C269.567 37.5292 267.434 36.0947 265.612 34.3113C263.829 32.5279 262.394 30.3568 261.347 27.8755C260.301 25.3942 259.758 22.7967 259.758 20.0828C259.758 17.3689 260.65 13.1042 262.433 10.0026C264.216 6.9398 266.659 4.4973 269.76 2.67512C272.823 0.891706 276.196 0 279.841 0C283.485 0 282.554 0.11631 283.873 0.387698C285.191 0.659087 286.47 1.04679 287.672 1.55079C288.874 2.0548 289.998 2.67512 291.084 3.41175C292.169 4.14837 293.139 4.96254 293.992 5.89302L289.107 10.778C286.548 8.21921 283.446 6.9398 279.802 6.9398C276.157 6.9398 273.056 8.21921 270.497 10.778C267.938 13.3368 266.659 16.4384 266.659 20.0828C266.659 23.7271 267.938 26.8287 270.497 29.3875C273.056 31.9464 276.157 33.2258 279.802 33.2258C283.446 33.2258 286.509 31.9464 289.107 29.3875H289.145Z" fill="white"/>
<path d="M320.084 0L334.7 40.1268H327.295L316.362 10.1577L305.468 40.1268H298.062L312.679 0H320.084Z" fill="white"/>
<path d="M115.146 19.8105H108.207V34.5431H115.146V19.8105Z" fill="white"/>
<path d="M183.497 0H176.558V40.1268H183.497V0Z" fill="white"/>
</g>
<defs>
<clipPath id="clip0_123_76">
<rect width="334.7" height="40.2043" fill="white"/>
</clipPath>
</defs>
</svg>
