<svg width="26" height="24" viewBox="0 0 26 24" fill="none" xmlns="http://www.w3.org/2000/svg">
<g clip-path="url(#clip0_1_577)">
<g clip-path="url(#clip1_1_577)">
<path d="M13 3C11.6154 2.9999 10.262 3.41039 9.11073 4.17955C7.9595 4.94871 7.06221 6.042 6.53236 7.32115C6.0025 8.60029 5.86388 10.0078 6.13402 11.3658C6.40415 12.7237 7.07092 13.971 8.04999 14.95C9.31999 16.22 12.3 18.05 12.47 19.98C12.5 20.26 12.71 20.5 13 20.5C13.29 20.5 13.5 20.26 13.53 19.98C13.7 18.05 16.68 16.22 17.95 14.95C18.9291 13.971 19.5958 12.7237 19.866 11.3658C20.1361 10.0078 19.9975 8.60029 19.4676 7.32115C18.9378 6.042 18.0405 4.94871 16.8892 4.17955C15.738 3.41039 14.3845 2.9999 13 3Z" fill="#FF4433"/>
<path d="M13 12.4498C13.3217 12.4498 13.6403 12.3864 13.9376 12.2633C14.2348 12.1402 14.5049 11.9597 14.7324 11.7322C14.9599 11.5047 15.1404 11.2346 15.2635 10.9374C15.3866 10.6401 15.45 10.3215 15.45 9.9998C15.45 9.67807 15.3866 9.35948 15.2635 9.06223C15.1404 8.76498 14.9599 8.4949 14.7324 8.26739C14.5049 8.03989 14.2348 7.85942 13.9376 7.7363C13.6403 7.61318 13.3217 7.5498 13 7.5498C12.3502 7.5498 11.727 7.80793 11.2676 8.26739C10.8081 8.72686 10.55 9.35002 10.55 9.9998C10.55 10.6496 10.8081 11.2728 11.2676 11.7322C11.727 12.1917 12.3502 12.4498 13 12.4498Z" fill="white"/>
</g>
</g>
<defs>
<clipPath id="clip0_1_577">
<rect width="14" height="18" fill="white" transform="translate(6 3)"/>
</clipPath>
<clipPath id="clip1_1_577">
<rect width="14" height="18" fill="white" transform="translate(6 3)"/>
</clipPath>
</defs>
</svg>
