<svg width="30" height="24" viewBox="0 0 30 24" fill="none" xmlns="http://www.w3.org/2000/svg">
<g clip-path="url(#clip0_1_588)">
<path d="M10.5 4C9.57174 4 8.6815 4.36875 8.02513 5.02513C7.36875 5.6815 7 6.57174 7 7.5V12H23V7.5C23 6.57174 22.6313 5.6815 21.9749 5.02513C21.3185 4.36875 20.4283 4 19.5 4H10.5Z" fill="#FFCC00"/>
<path d="M7 12V16.5C7 17.4283 7.36875 18.3185 8.02513 18.9749C8.6815 19.6313 9.57174 20 10.5 20H15V12H7Z" fill="#E6E6E6"/>
<path d="M15 12V20H19.5C20.4283 20 21.3185 19.6313 21.9749 18.9749C22.6313 18.3185 23 17.4283 23 16.5V12H15Z" fill="black"/>
</g>
<defs>
<clipPath id="clip0_1_588">
<rect width="18" height="18" fill="white" transform="translate(6 3)"/>
</clipPath>
</defs>
</svg>
